<svg xmlns="http://www.w3.org/2000/svg" viewBox="0 0 36 36"><path fill="#292F33" d="M3 24c4-1 9-4 12-7l-1 5c-3 2-7 3-11 2z"/><ellipse cx="19" cy="17" rx="9" ry="6" fill="#292F33"/><path fill="#F5F8FA" d="M13 19c2-3 5-4 9-4-2 2-3 5-3 8-3 0-5-2-6-4z"/><path fill="#55ACEE" d="M12 20c1 3 4 5 8 5-3-2-4-4-4-7-2 0-3 1-4 2z" opacity=".7"/><circle cx="24" cy="14" r="1.3" fill="#F5F8FA"/><circle cx="24.4" cy="14" r=".7" fill="#292F33"/><path fill="#292F33" d="M27 16l6 1-6 1z"/><path stroke="#292F33" stroke-width="1.5" stroke-linecap="round" d="M17 23v5M21 23v5"/></svg>
